<svg width="40" height="40" viewBox="0 0 40 40" fill="none" xmlns="http://www.w3.org/2000/svg">
<path d="M0 8C0 3.58172 3.58172 0 8 0H32C36.4183 0 40 3.58172 40 8V32C40 36.4183 36.4183 40 32 40H8C3.58172 40 0 36.4183 0 32V8Z" fill="#00BCD4"/>
<path d="M21.2826 21.8538L17.1443 18.1707H20.1653L22.6483 20.9433L21.2826 21.8538Z" fill="#00BCD4"/>
<path d="M17.5993 18.6673C18.1511 19.219 19.2133 20.2895 19.2133 20.3226L22.3584 21.8952L18.7167 18.2534L17.5993 18.6673Z" fill="#00BCD4"/>
<path d="M4.30837 13.7501C4.32975 13.3038 4.39879 12.8668 4.50946 12.4434C4.51838 12.4092 4.52762 12.3751 4.53711 12.3411C4.78503 11.4516 5.21658 10.624 5.77544 9.89788C7.13343 8.13334 9.24302 6.96753 11.2957 6.96753C13.6658 6.96753 15.6666 8.39474 16.5917 9.18393C16.9063 9.45229 17.3691 9.44741 17.679 9.17374C18.5751 8.38246 20.5222 6.96753 22.9882 6.96753C26.3175 6.96753 29.7975 10.0353 29.9754 13.7501C30.031 14.9123 29.8695 15.9203 29.5698 16.8345C29.3284 17.5708 28.9977 18.2466 28.617 18.8919C27.3517 21.0373 21.2931 25.6599 18.6476 27.8993C17.7721 28.6404 16.4895 28.6402 15.6144 27.8987C12.9762 25.6636 6.93974 21.0545 5.66679 18.8919C5.09572 17.9217 4.63829 16.8893 4.42625 15.6863C4.32077 15.0877 4.27496 14.4474 4.30837 13.7501Z" fill="#00BCD4"/>
<path d="M27.9541 33.0976C32.1222 33.0976 35.5012 29.6912 35.5012 25.4892C35.5012 21.2872 32.1222 17.8809 27.9541 17.8809C23.7859 17.8809 20.407 21.2872 20.407 25.4892C20.407 29.6912 23.7859 33.0976 27.9541 33.0976Z" fill="white"/>
<path d="M30.985 23.9479H29.4826V22.4322C29.4826 22.0042 29.1384 21.6572 28.7138 21.6572H27.1945C26.7699 21.6572 26.4257 22.0042 26.4257 22.4322V23.9479H24.9233C24.4987 23.9479 24.1545 24.2949 24.1545 24.7229V26.2557C24.1545 26.6838 24.4987 27.0308 24.9233 27.0308H26.4257V28.5464C26.4257 28.9744 26.7699 29.3214 27.1945 29.3214H28.7138C29.1384 29.3214 29.4826 28.9744 29.4826 28.5464V27.0308H30.985C31.4096 27.0308 31.7538 26.6838 31.7538 26.2557V24.7229C31.7538 24.2948 31.4096 23.9479 30.985 23.9479Z" fill="#00BCD4"/>
<path d="M3.93227 12.6598C4.03085 12.9002 4.27706 13.0595 4.53694 13.0505C4.79891 13.0413 5.02962 12.8678 5.11536 12.6212C5.20078 12.3757 5.11763 12.0935 4.91774 11.9291C4.70811 11.7566 4.40197 11.7389 4.1738 11.8861C3.92037 12.0494 3.81622 12.3812 3.93227 12.6598Z" fill="white"/>
<path d="M30.9847 23.3153H30.1151V22.4324C30.1151 21.6562 29.4863 21.0247 28.7135 21.0247H27.1942C26.4214 21.0247 25.7927 21.6562 25.7927 22.4324V23.3153H24.923C24.1502 23.3153 23.5215 23.9468 23.5215 24.7231V26.2559C23.5215 27.0322 24.1502 27.6637 24.923 27.6637H25.7927V28.5466C25.7927 29.3229 26.4214 29.9544 27.1942 29.9544H28.7135C29.4863 29.9544 30.1151 29.3229 30.1151 28.5466V27.6637H30.9847C31.7575 27.6637 32.3863 27.0322 32.3863 26.2559V24.7231C32.3863 23.9468 31.7575 23.3153 30.9847 23.3153ZM31.1208 26.2559C31.1208 26.3343 31.0598 26.3981 30.9848 26.3981H29.4824C29.1329 26.3981 28.8496 26.6814 28.8496 27.0309V28.5466C28.8496 28.625 28.7886 28.6888 28.7136 28.6888H27.1943C27.1192 28.6888 27.0583 28.625 27.0583 28.5466V27.0309C27.0583 26.6814 26.7749 26.3981 26.4255 26.3981H24.9231C24.848 26.3981 24.7871 26.3343 24.7871 26.2559V24.723C24.7871 24.6445 24.8481 24.5808 24.9231 24.5808H26.4255C26.7749 24.5808 27.0583 24.2975 27.0583 23.948V22.4324C27.0583 22.3539 27.1193 22.2901 27.1943 22.2901H28.7136C28.7886 22.2901 28.8496 22.3539 28.8496 22.4324V23.948C28.8496 24.2975 29.1329 24.5808 29.4824 24.5808H30.9848C31.0599 24.5808 31.1208 24.6445 31.1208 24.723V26.2559Z" fill="white"/>
<path d="M25.7519 19.1638C25.7519 22.135 23.3618 24.5436 20.4134 24.5436C17.4651 24.5436 15.075 22.135 15.075 19.1638C15.075 16.1926 17.4651 13.7839 20.4134 13.7839C23.3618 13.7839 25.7519 16.1926 25.7519 19.1638Z" fill="white"/>
<path d="M30.0001 17.5094C30.0622 17.3496 30.1193 17.1902 30.1712 17.0318C30.5205 15.9662 30.6632 14.8829 30.6075 13.72C30.5153 11.7937 29.6238 9.94167 28.0973 8.50516C26.6317 7.12598 24.7696 6.33496 22.9883 6.33496C20.3344 6.33496 18.2604 7.81646 17.2602 8.69961C17.1858 8.76536 17.0774 8.76675 17.0025 8.70271C15.9659 7.81842 13.846 6.33496 11.2957 6.33496C9.18835 6.33496 6.945 7.47198 5.4411 9.30226C5.21925 9.57226 5.25823 9.97103 5.52823 10.1929C5.79829 10.4148 6.197 10.3758 6.41885 10.1057C7.68856 8.56053 9.55731 7.60056 11.2957 7.60056C13.4402 7.60056 15.277 8.89438 16.1811 9.6656C16.7312 10.1349 17.5552 10.1275 18.0979 9.64832C18.964 8.88356 20.751 7.60056 22.9882 7.60056C25.8484 7.60056 29.1739 10.2435 29.3434 13.7805C29.3915 14.7866 29.2688 15.7212 28.9684 16.6377C28.8973 16.8547 28.8172 17.0687 28.726 17.285C28.4718 17.2609 28.2143 17.2486 27.954 17.2486C23.4437 17.2486 19.7742 20.9455 19.7742 25.4897C19.7742 25.7045 19.7824 25.9175 19.7985 26.1284C19.1726 26.6388 18.6639 27.0568 18.2388 27.4166C17.5969 27.96 16.6652 27.9599 16.0234 27.4162C15.4492 26.9297 14.7027 26.3214 13.9123 25.6774C11.0596 23.3528 7.15267 20.1692 6.21219 18.5713C5.59385 17.5208 5.22437 16.5693 5.04948 15.5768C5.02929 15.4621 5.01138 15.3455 4.99645 15.2302C4.95146 14.8836 4.63406 14.6391 4.2875 14.6841C3.94093 14.7291 3.69643 15.0465 3.74142 15.393C3.75882 15.5273 3.77964 15.663 3.80318 15.7965C4.00516 16.9425 4.42405 18.0282 5.12155 19.2132C6.1772 21.0068 10.0228 24.1404 13.1129 26.6584C13.8985 27.2985 14.6404 27.9031 15.2053 28.3817C15.7633 28.8545 16.4472 29.0907 17.1314 29.0907C17.8149 29.0907 18.4987 28.8546 19.0565 28.3825C19.3407 28.142 19.6644 27.8737 20.0375 27.5676C20.954 31.1091 24.1558 33.7308 27.954 33.7308C32.4644 33.7308 36.1338 30.0338 36.1338 25.4897C36.1339 21.657 33.5236 18.427 30.0001 17.5094ZM27.9541 32.4652C24.1415 32.4652 21.0398 29.3359 21.0398 25.4896C21.0398 21.6433 24.1415 18.514 27.9541 18.514C31.7667 18.514 34.8685 21.6433 34.8685 25.4896C34.8684 29.3359 31.7667 32.4652 27.9541 32.4652Z" fill="white"/>
<path d="M24.1606 21.9853L24.324 22.0654C24.432 22.1183 24.5542 22.1259 24.6684 22.0869C24.7826 22.0478 24.8746 21.9668 24.9275 21.859L25.2377 21.2263C25.2906 21.1184 25.2982 20.9961 25.2592 20.8818C25.2201 20.7676 25.1392 20.6756 25.0312 20.6227L24.8677 20.5425L25.1824 19.9007C25.2473 19.7684 25.1925 19.6082 25.0602 19.5434L24.4333 19.2362L24.5329 19.033C24.6072 18.8813 24.5444 18.6974 24.3926 18.6229L23.4421 18.1568C23.3687 18.1209 23.2855 18.1156 23.2079 18.1422C23.1303 18.1687 23.0677 18.2237 23.0318 18.2971L22.5196 19.3417L20.4012 18.3029L20.9134 17.2583C20.9876 17.1066 20.9248 16.9227 20.773 16.8482L19.8225 16.3821C19.7491 16.3462 19.6659 16.3409 19.5883 16.3675C19.5107 16.394 19.4482 16.449 19.4122 16.5224L19.3126 16.7255L18.6857 16.4182C18.5535 16.3534 18.3934 16.4082 18.3286 16.5404L18.0138 17.1824L17.8503 17.1022C17.7424 17.0493 17.6201 17.0416 17.5059 17.0807C17.3917 17.1197 17.2997 17.2006 17.2468 17.3086L16.9366 17.9414C16.8818 18.053 16.8776 18.1765 16.915 18.2858C16.9524 18.395 17.0314 18.4901 17.1431 18.5449L17.3066 18.625L16.9612 19.3296C16.9298 19.3936 16.9253 19.466 16.9484 19.5335C16.9715 19.6011 17.0194 19.6556 17.0834 19.6868L17.7102 19.9942L17.6106 20.1973C17.5746 20.2707 17.5694 20.3538 17.596 20.4315C17.6226 20.5091 17.6776 20.5716 17.7509 20.6074L18.7016 21.0736C18.8533 21.1479 19.0372 21.085 19.1116 20.9333L19.6238 19.8887L21.7424 20.9273L21.2304 21.9718C21.1944 22.0452 21.1892 22.1284 21.2157 22.2059C21.2422 22.2835 21.2972 22.3461 21.3707 22.382L22.3212 22.848C22.473 22.9224 22.6569 22.8595 22.7313 22.7078L22.8309 22.5046L23.4578 22.8119C23.59 22.8767 23.7502 22.8219 23.815 22.6897L24.1606 21.9853ZM24.89 20.9112C24.9208 20.9263 24.944 20.9528 24.9552 20.9858C24.9665 21.0188 24.9644 21.0539 24.9493 21.0847L24.6391 21.7175C24.624 21.7484 24.5976 21.7715 24.5645 21.7828C24.5316 21.7941 24.4964 21.792 24.4654 21.7769L24.3019 21.6967L24.7264 20.831L24.89 20.9112ZM17.2845 18.2565C17.2203 18.225 17.1936 18.1471 17.225 18.0828L17.5352 17.4501C17.5504 17.4192 17.5769 17.396 17.6099 17.3847C17.6429 17.3734 17.678 17.3755 17.7089 17.3907L17.8724 17.4708L17.448 18.3365L17.2845 18.2565ZM17.2736 19.4223L18.5931 16.7306L19.1712 17.0141L17.8516 19.7057L17.2736 19.4223ZM18.8297 20.7786L17.9056 20.3255L18.7999 18.5013L19.4836 17.1067C19.4836 17.1066 19.4836 17.1066 19.4836 17.1065L19.6941 16.6771L20.6182 17.1302L18.8297 20.7786ZM19.7653 19.6002L20.2598 18.5914L22.3785 19.6301L21.8839 20.6388L19.7653 19.6002ZM21.5254 22.1001L23.314 18.4516L24.2381 18.9047L22.4495 22.5531L21.5254 22.1001ZM22.9725 22.2163L24.2922 19.5246L24.8702 19.8079L23.5506 22.4996L22.9725 22.2163Z" fill="#00BCD4"/>
</svg>
