<svg width="40" height="40" viewBox="0 0 40 40" fill="none" xmlns="http://www.w3.org/2000/svg">
<path d="M0 8C0 3.58172 3.58172 0 8 0H32C36.4183 0 40 3.58172 40 8V32C40 36.4183 36.4183 40 32 40H8C3.58172 40 0 36.4183 0 32V8Z" fill="#00BCD4"/>
<g clip-path="url(#clip0)">
<path d="M17.7922 16.4517L15.7559 19.7683C15.7159 19.849 15.6347 19.896 15.5502 19.896C15.516 19.896 15.4812 19.8883 15.4485 19.8719C15.3302 19.8133 15.2046 19.7855 15.0809 19.7855C14.7755 19.7855 14.4819 19.9548 14.337 20.2469L14.2145 20.494C14.0112 20.9045 14.1792 21.4022 14.5895 21.6056L22.1459 25.3497C22.2642 25.4083 22.3898 25.4361 22.5135 25.4361C22.8189 25.4361 23.1125 25.2668 23.2574 24.9747L23.3799 24.7275C23.5832 24.3171 23.4152 23.8194 23.0049 23.616C22.8914 23.5597 22.8449 23.4222 22.901 23.3087L24.3065 19.6795C24.9883 17.919 24.2148 15.9291 22.5234 15.0909C22.0042 14.8338 21.451 14.7109 20.9051 14.7109C19.6723 14.7109 18.4769 15.3366 17.7922 16.4517Z" fill="white"/>
<path d="M30.3648 20.5494C29.9871 20.5043 29.6444 20.774 29.5994 21.1516C29.0336 25.8935 24.995 29.4696 20.2054 29.4696C17.934 29.4696 15.7379 28.6538 14.0219 27.1724C12.6007 25.9457 11.5822 24.3307 11.0867 22.5456L11.9093 22.9975C12.2427 23.1804 12.6615 23.0588 12.8444 22.7255C13.0275 22.3921 12.9057 21.9733 12.5723 21.7904L10.4593 20.6296C10.1261 20.4467 9.70785 20.5681 9.5244 20.9009L8.36214 23.0115C8.17869 23.3447 8.30009 23.7634 8.63311 23.9469C8.94085 24.1049 9.35815 24.0215 9.56851 23.6759L9.83894 23.1851C10.4322 25.123 11.5665 26.8723 13.1218 28.215C15.088 29.9122 17.6035 30.8469 20.2054 30.8469C25.6921 30.8469 30.3185 26.749 30.967 21.3148C31.012 20.9372 30.7424 20.5945 30.3648 20.5494Z" fill="white"/>
<path d="M31.3657 15.0756C31.0167 14.9251 30.6114 15.086 30.4608 15.4353L30.2443 15.9369C29.513 14.1525 28.2989 12.5654 26.7529 11.3931C24.8565 9.95508 22.5924 9.19507 20.2053 9.19507C17.7045 9.19507 15.2643 10.0661 13.3345 11.6478C11.4313 13.2078 10.1049 15.3849 9.59994 17.7779C9.52139 18.15 9.75955 18.5153 10.1317 18.5939C10.1795 18.6041 10.2272 18.6088 10.2744 18.6088C10.5931 18.6088 10.8791 18.3864 10.9474 18.0623C11.3881 15.9747 12.5458 14.0751 14.2075 12.713C15.8918 11.3325 18.0219 10.5722 20.2053 10.5722C22.2893 10.5722 24.2657 11.2355 25.9206 12.4905C27.3436 13.5695 28.4438 15.0501 29.0683 16.71L28.1962 16.3348C27.8468 16.1847 27.4417 16.3459 27.2914 16.6953C27.1411 17.0446 27.3025 17.4497 27.6519 17.6L29.867 18.5526C29.9558 18.5908 30.0479 18.6089 30.1389 18.6089C30.4055 18.6089 30.6591 18.4531 30.7716 18.1929L31.7254 15.9806C31.8761 15.6313 31.715 15.2262 31.3657 15.0756Z" fill="white"/>
<path d="M19.1746 26.373C19.7116 26.613 20.2128 26.3822 20.4777 26.0601L18.6341 25.1467C18.4964 25.6234 18.7143 26.1449 19.1746 26.373Z" fill="white"/>
<path d="M23.9663 14.376C23.9737 14.3627 23.9812 14.3494 23.988 14.3358C24.2276 13.8521 24.0298 13.2659 23.5463 13.0263C22.9771 12.8186 22.4626 12.9587 22.2368 13.468C22.23 13.482 22.2246 13.4961 22.2185 13.5101C22.5341 13.5957 22.8417 13.7115 23.1347 13.8568C23.4308 14.0035 23.7086 14.178 23.9663 14.376Z" fill="white"/>
<path d="M18.5069 19.289C18.3644 19.2214 18.1945 19.2811 18.1276 19.4224L18.079 19.5249C17.8243 20.0621 18.0587 20.7085 18.6015 20.9659L18.7087 21.0167L18.4929 21.4719C18.426 21.6132 18.4873 21.7825 18.6298 21.85C18.7724 21.9176 18.9422 21.8579 19.0092 21.7167L19.225 21.2615L19.5353 21.4086L19.3195 21.8638C19.2525 22.005 19.3138 22.1743 19.4564 22.2419C19.5989 22.3095 19.7688 22.2498 19.8357 22.1085L20.0515 21.6533L20.1588 21.7042C20.7016 21.9615 21.3504 21.7338 21.6051 21.1965L21.6754 21.0483C21.8569 20.6655 21.7576 20.2029 21.434 19.9233L21.035 19.5786L21.6302 18.3233L21.7375 18.3742C21.9956 18.4966 22.1072 18.8038 21.9862 19.0591L21.9667 19.1002C21.8998 19.2414 21.961 19.4108 22.1035 19.4783C22.2461 19.5459 22.4159 19.4861 22.4829 19.3449L22.5024 19.3038C22.7571 18.7665 22.5228 18.1201 21.98 17.8627L21.8726 17.8118L22.0712 17.393C22.1382 17.2517 22.0769 17.0825 21.9344 17.0149C21.7918 16.9473 21.622 17.007 21.5551 17.1483L21.3565 17.5671L21.0461 17.42L21.2447 17.0012C21.3117 16.8599 21.2504 16.6907 21.1078 16.6231C20.9653 16.5555 20.7955 16.6152 20.7285 16.7564L20.5299 17.1753L20.4226 17.1244C19.8799 16.8671 19.231 17.0948 18.9763 17.6321C18.7949 18.0149 18.8941 18.4774 19.2177 18.757L19.6166 19.1017L18.9512 20.5053L18.8439 20.4544C18.5858 20.332 18.4742 20.0248 18.5952 19.7696L18.6438 19.6671C18.7108 19.5258 18.6495 19.3566 18.5069 19.289ZM21.0617 20.3502C21.1922 20.4629 21.2323 20.6493 21.1592 20.8035L21.0889 20.9518C20.9679 21.207 20.6595 21.3151 20.4014 21.1927L20.294 21.1419L20.7834 20.1096L21.0617 20.3502ZM21.114 18.0786L20.5866 19.1911L20.3169 18.9582L20.8037 17.9315L21.114 18.0786ZM19.59 18.3302C19.4596 18.2174 19.4194 18.031 19.4926 17.8768C19.6135 17.6216 19.922 17.5135 20.1802 17.6359L20.2874 17.6867L19.8684 18.5706L19.59 18.3302ZM20.0652 19.4892L20.3348 19.7221L19.7778 20.8971L19.4675 20.75L20.0652 19.4892Z" fill="#00BCD4"/>
</g>
<defs>
<clipPath id="clip0">
<rect width="23.5058" height="23.5058" fill="white" transform="translate(8.27661 8.27661)"/>
</clipPath>
</defs>
</svg>
