<svg width="40" height="40" viewBox="0 0 40 40" fill="none" xmlns="http://www.w3.org/2000/svg">
<path d="M0 8C0 3.58172 3.58172 0 8 0H32C36.4183 0 40 3.58172 40 8V32C40 36.4183 36.4183 40 32 40H8C3.58172 40 0 36.4183 0 32V8Z" fill="#00BCD4"/>
<path d="M34.0745 20.0432C34.3185 20.0432 34.4894 19.848 34.5138 19.6285V14.3108C34.5138 14.0668 34.3185 13.8961 34.0745 13.8717H32.9031L32.3906 10.3834C32.3662 10.1395 32.1465 9.99314 31.9025 10.0175L25.2888 10.9933H25.2644L5.93589 13.8961C5.93589 13.8961 5.56981 13.9693 5.56981 14.3108V19.6041C5.56981 19.848 5.76505 20.0188 5.98469 20.0432C7.0585 20.0432 7.91267 20.897 7.91267 21.9703C7.91267 23.0436 7.0585 23.8973 5.98469 23.8973C5.74065 23.8973 5.56981 24.0925 5.54541 24.312V29.6054C5.54541 29.8493 5.74065 30.0201 5.98469 30.0445H34.0501C34.2941 30.0445 34.465 29.8493 34.4894 29.6054V24.3364C34.4894 24.0925 34.2941 23.9217 34.0745 23.8973C33.0007 23.8973 32.1465 23.0436 32.1465 21.9703C32.1465 20.897 33.0007 20.0432 34.0745 20.0432ZM24.9715 11.9202L25.1424 13.0667C25.1668 13.2862 25.362 13.4326 25.5573 13.4326H25.6305C25.8745 13.4082 26.0209 13.1887 25.9965 12.9447L25.8257 11.7982L31.6096 10.9445L32.0489 13.8961H11.7686L24.9715 11.9202ZM33.6596 24.7267V29.2151H27.3388V28.0442C27.3388 27.8003 27.1436 27.6051 26.8995 27.6051C26.6555 27.6051 26.4602 27.8003 26.4602 28.0442V29.2151H6.44838V24.7267C7.96147 24.4828 9.01088 23.068 8.76683 21.5556C8.57159 20.3603 7.64421 19.409 6.44838 19.2382V14.7498H26.4846V15.8963C26.4846 16.1403 26.6799 16.3354 26.9239 16.3354C27.168 16.3354 27.3632 16.1403 27.3632 15.8963V14.7254H33.684V19.2138C32.1709 19.4577 31.1215 20.8726 31.3656 22.3849C31.512 23.6046 32.4394 24.5316 33.6596 24.7267Z" fill="white"/>
<g clip-path="url(#clip0)">
<path d="M24.9051 23.9316C24.8688 23.097 24.7236 22.1716 24.5059 21.3007C24.2882 20.4661 24.016 19.6859 23.6894 19.0872C22.4194 16.8555 21.0405 17.2003 19.3894 17.6357C18.8632 17.7627 18.3007 17.9079 17.7201 17.9623H17.5387C16.9581 17.9079 16.3957 17.7627 15.8695 17.6357C14.2184 17.2184 12.8395 16.8555 11.5694 19.1053C11.2428 19.7041 10.9525 20.4843 10.7529 21.3189C10.5352 22.1898 10.3901 23.1151 10.3538 23.9497C10.3175 24.8751 10.4082 25.5464 10.6078 26.0181C10.8074 26.4536 11.0977 26.7257 11.4787 26.8346C11.8234 26.9253 12.2226 26.889 12.6399 26.7076C13.3475 26.4173 14.164 25.8004 14.9623 25.0565C15.5248 24.5122 16.5771 24.24 17.6294 24.24C18.6818 24.24 19.7341 24.5122 20.2966 25.0565C21.0949 25.8004 21.9114 26.4173 22.619 26.7076C23.0363 26.8709 23.4354 26.9253 23.7802 26.8346C24.143 26.7257 24.4515 26.4717 24.6511 26C24.8506 25.5464 24.9414 24.8751 24.9051 23.9316ZM24.0342 25.746C23.9253 26 23.7802 26.1451 23.5987 26.1996C23.3991 26.254 23.1451 26.2177 22.8548 26.1088C22.2198 25.8548 21.4759 25.2924 20.7502 24.6029C20.0607 23.9134 18.8451 23.5687 17.6294 23.5687C16.4138 23.5687 15.1982 23.9134 14.4906 24.5666C13.7467 25.2561 13.0028 25.8367 12.3859 26.0726C12.0956 26.1814 11.8416 26.2358 11.642 26.1633C11.4605 26.1088 11.3154 25.9637 11.2065 25.7097C11.0614 25.3649 10.9888 24.8025 11.0251 23.9679C11.0614 23.1877 11.1884 22.2987 11.4061 21.464C11.6057 20.6839 11.8597 19.9581 12.1682 19.4138C13.1661 17.6176 14.3273 17.9079 15.7062 18.2707C16.2686 18.4159 16.8492 18.561 17.4843 18.6155C17.5024 18.6155 17.5024 18.6155 17.5206 18.6155H17.7201C17.7383 18.6155 17.7383 18.6155 17.7564 18.6155C18.4096 18.561 18.9902 18.4159 19.5527 18.2707C20.9316 17.926 22.0928 17.6176 23.0907 19.4138C23.3991 19.9581 23.6532 20.6657 23.8527 21.464C24.0523 22.2987 24.1975 23.1696 24.2338 23.9679C24.27 24.8025 24.1975 25.3649 24.0342 25.746Z" fill="white"/>
<path d="M15.9603 20.3936C15.7788 20.2303 15.5611 20.1033 15.3071 20.0852C15.289 19.8493 15.1801 19.6134 15.0168 19.4501L14.9987 19.432C14.7991 19.2324 14.5451 19.1235 14.2548 19.1235C13.9645 19.1235 13.6923 19.2505 13.5109 19.432C13.3476 19.5953 13.2206 19.8311 13.2024 20.0852C12.9484 20.1033 12.7307 20.2122 12.5492 20.3755L12.5311 20.3936C12.3315 20.5932 12.2227 20.8472 12.2227 21.1375C12.2227 21.4278 12.3497 21.7 12.5311 21.8814C12.7125 22.0628 12.9303 22.1717 13.2024 22.1898C13.2206 22.4438 13.3294 22.6797 13.5109 22.843C13.7104 23.0426 13.9645 23.1515 14.2548 23.1515C14.5451 23.1515 14.8172 23.0244 14.9987 22.843C15.1619 22.6616 15.289 22.4438 15.3071 22.1898C15.5611 22.1717 15.797 22.0628 15.9603 21.8814C16.1599 21.6818 16.2687 21.4278 16.2687 21.1375C16.2687 20.8472 16.1417 20.575 15.9603 20.3936ZM15.5067 21.4097C15.4341 21.4822 15.3434 21.5185 15.2345 21.5185H14.9805C14.7991 21.5185 14.6358 21.6637 14.6358 21.8632V22.0991C14.6358 22.208 14.5995 22.2987 14.5269 22.3713C14.4543 22.4438 14.3636 22.4801 14.2548 22.4801C14.1459 22.4801 14.0552 22.4438 13.9826 22.3713C13.91 22.2987 13.8737 22.208 13.8737 22.0991V21.8451C13.8737 21.6637 13.7286 21.5004 13.529 21.5004H13.275C13.1661 21.5004 13.0754 21.4641 13.0028 21.3915C12.9484 21.3371 12.894 21.2464 12.894 21.1375C12.894 21.0286 12.9303 20.9379 13.0028 20.8653C13.0028 20.8653 13.0028 20.8653 13.021 20.8472C13.0936 20.7928 13.1843 20.7565 13.275 20.7565H13.529C13.7104 20.7565 13.8737 20.6113 13.8737 20.4117V20.1577C13.8737 20.0489 13.91 19.9581 13.9826 19.8856C14.0552 19.813 14.1459 19.7767 14.2548 19.7767C14.3636 19.7767 14.4543 19.813 14.5269 19.8856C14.5269 19.8856 14.5269 19.8856 14.5451 19.9037C14.5995 19.9763 14.6358 20.067 14.6358 20.1577V20.4117C14.6358 20.5932 14.7809 20.7565 14.9805 20.7565H15.2345C15.3434 20.7565 15.4341 20.7928 15.5067 20.8653C15.5793 20.9379 15.6155 21.0286 15.6155 21.1375C15.6155 21.2464 15.5793 21.3371 15.5067 21.4097Z" fill="white"/>
<path d="M20.7866 20.4844C21.1374 20.4844 21.4217 20.2001 21.4217 19.8494C21.4217 19.4987 21.1374 19.2144 20.7866 19.2144C20.4359 19.2144 20.1516 19.4987 20.1516 19.8494C20.1516 20.2001 20.4359 20.4844 20.7866 20.4844Z" fill="white"/>
<path d="M20.7866 23.0606C21.1374 23.0606 21.4217 22.7763 21.4217 22.4256C21.4217 22.0748 21.1374 21.7905 20.7866 21.7905C20.4359 21.7905 20.1516 22.0748 20.1516 22.4256C20.1516 22.7763 20.4359 23.0606 20.7866 23.0606Z" fill="white"/>
<path d="M19.4983 21.7723C19.849 21.7723 20.1333 21.4879 20.1333 21.1372C20.1333 20.7865 19.849 20.5022 19.4983 20.5022C19.1476 20.5022 18.8633 20.7865 18.8633 21.1372C18.8633 21.4879 19.1476 21.7723 19.4983 21.7723Z" fill="white"/>
<path d="M22.0747 21.7723C22.4254 21.7723 22.7098 21.4879 22.7098 21.1372C22.7098 20.7865 22.4254 20.5022 22.0747 20.5022C21.724 20.5022 21.4397 20.7865 21.4397 21.1372C21.4397 21.4879 21.724 21.7723 22.0747 21.7723Z" fill="white"/>
</g>
<defs>
<clipPath id="clip0">
<rect width="14.567" height="14.567" fill="white" transform="translate(10.3459 14.8152)"/>
</clipPath>
</defs>
</svg>
