<svg width="40" height="40" viewBox="0 0 40 40" fill="none" xmlns="http://www.w3.org/2000/svg">
<path d="M0 8C0 3.58172 3.58172 0 8 0H32C36.4183 0 40 3.58172 40 8V32C40 36.4183 36.4183 40 32 40H8C3.58172 40 0 36.4183 0 32V8Z" fill="#00BCD4"/>
<path fill-rule="evenodd" clip-rule="evenodd" d="M14.969 10.8933C14.969 9.71531 13.9632 8.75684 12.7268 8.75684C11.4907 8.75684 10.4849 9.71531 10.4849 10.8933C10.4849 12.0715 11.4907 13.0297 12.7268 13.0297C13.9632 13.03 14.969 12.0715 14.969 10.8933ZM11.5768 10.8933C11.5768 10.2891 12.0928 9.79742 12.7268 9.79742C13.3611 9.79742 13.877 10.2891 13.877 10.8933C13.877 11.4975 13.3611 11.9892 12.7268 11.9892C12.0928 11.9894 11.5768 11.4975 11.5768 10.8933Z" fill="white"/>
<path fill-rule="evenodd" clip-rule="evenodd" d="M27.7956 20.2917C26.3886 20.2917 25.1928 20.6259 24.47 21.1567L22.5119 20.7413C22.2182 20.6789 21.926 20.8555 21.8603 21.136C21.7948 21.4165 21.9802 21.6945 22.2747 21.7569L23.7755 22.0754C23.7476 22.1792 23.7327 22.2861 23.7327 22.3953C23.7327 23.1021 24.3399 23.7062 25.3124 24.0834L24.4382 24.9405C24.2281 25.1465 24.233 25.476 24.4493 25.6762C24.5553 25.7745 24.6926 25.8233 24.8298 25.8233C24.972 25.8233 25.1143 25.7707 25.2213 25.6658L26.5129 24.3994C26.9131 24.4639 27.3432 24.4988 27.7956 24.4988C30.1118 24.4988 31.8585 23.5944 31.8585 22.3953C31.8585 21.1962 30.1118 20.2917 27.7956 20.2917ZM27.7956 23.4582C26.0096 23.4582 24.8247 22.8184 24.8247 22.3953C24.8247 22.3067 24.8771 22.2087 24.9754 22.1091C24.9923 22.0951 25.0083 22.0803 25.023 22.064C25.4306 21.7012 26.4394 21.3323 27.7956 21.3323C29.5816 21.3323 30.7665 21.9721 30.7665 22.3953C30.7665 22.8184 29.5816 23.4582 27.7956 23.4582Z" fill="white"/>
<path fill-rule="evenodd" clip-rule="evenodd" d="M21.3032 29.5075L22.1774 28.6502C22.3875 28.4441 22.3826 28.1149 22.1663 27.9145C21.9503 27.7143 21.6045 27.7189 21.3942 27.925L20.1026 29.1912C19.7025 29.1268 19.2724 29.0918 18.82 29.0918C16.5038 29.0918 14.7571 29.9962 14.7571 31.1954C14.7571 32.3945 16.5038 33.2989 18.82 33.2989C21.1362 33.2989 22.8829 32.3945 22.8829 31.1954C22.8829 30.4885 22.2757 29.8845 21.3032 29.5075ZM18.82 32.2583C17.034 32.2583 15.8491 31.6185 15.8491 31.1954C15.8491 30.7722 17.034 30.1324 18.82 30.1324C20.606 30.1324 21.7909 30.7722 21.7909 31.1954C21.7909 31.6185 20.606 32.2583 18.82 32.2583Z" fill="white"/>
<path fill-rule="evenodd" clip-rule="evenodd" d="M18.0107 20.8519C18.0507 20.8604 18.0904 20.8645 18.1299 20.8645C18.38 20.8645 18.6057 20.6995 18.6622 20.4572C18.7277 20.1767 18.5424 19.8987 18.248 19.8363L16.747 19.5176C16.7751 19.4138 16.7899 19.3071 16.7899 19.1977C16.7899 18.2228 15.6518 17.5643 14.3483 17.2682L16.7845 12.6183C16.7884 12.6107 16.7922 12.603 16.7958 12.5953C17.0439 12.0573 17.1697 11.4848 17.1697 10.8934C17.1697 8.55894 15.1768 6.65967 12.7269 6.65967C10.2772 6.65967 8.28418 8.55894 8.28418 10.8934C8.28418 11.4846 8.41001 12.0571 8.65827 12.5953C8.66168 12.603 8.66552 12.6107 8.66957 12.6183L11.1082 17.2728C9.80122 17.5761 8.66403 18.2348 8.66403 19.1979C8.66403 20.397 10.4108 21.3013 12.7269 21.3013C14.1339 21.3013 15.33 20.9671 16.0528 20.4365L18.0107 20.8519ZM9.37616 10.8934C9.37616 9.13269 10.8793 7.70026 12.7269 7.70026C14.5746 7.70026 16.0777 9.13269 16.0777 10.8934C16.0777 11.3356 15.9847 11.7634 15.8013 12.1652L12.7269 18.0332L9.65277 12.1652C9.46914 11.7632 9.37616 11.3354 9.37616 10.8934ZM9.756 19.1979C9.756 18.9246 10.4671 18.4494 11.6109 18.2323L12.2385 19.4302C12.3309 19.6067 12.5201 19.718 12.7269 19.718C12.9338 19.718 13.123 19.6067 13.2156 19.4302L13.8447 18.2291C15.0015 18.4382 15.6979 18.9122 15.6979 19.1977C15.6979 19.2865 15.645 19.3849 15.5462 19.4849C15.5296 19.4989 15.5138 19.5136 15.4991 19.5294C15.0915 19.892 14.0827 20.2607 12.7269 20.2607C10.941 20.2607 9.756 19.6211 9.756 19.1979Z" fill="white"/>
<path fill-rule="evenodd" clip-rule="evenodd" d="M23.3077 26.2751C23.007 26.2751 22.7617 26.5087 22.7617 26.7954C22.7617 27.082 23.007 27.3157 23.3077 27.3157C23.6084 27.3157 23.8537 27.082 23.8537 26.7954C23.8537 26.5087 23.6084 26.2751 23.3077 26.2751Z" fill="white"/>
<path fill-rule="evenodd" clip-rule="evenodd" d="M20.2613 21.3167C20.562 21.3167 20.8073 21.083 20.8073 20.7964C20.8073 20.5098 20.562 20.2761 20.2613 20.2761C19.9606 20.2761 19.7153 20.5098 19.7153 20.7964C19.7153 21.083 19.9606 21.3167 20.2613 21.3167Z" fill="white"/>
</svg>
