<svg width="40" height="40" viewBox="0 0 40 40" fill="none" xmlns="http://www.w3.org/2000/svg">
<path d="M0 8C0 3.58172 3.58172 0 8 0H32C36.4183 0 40 3.58172 40 8V32C40 36.4183 36.4183 40 32 40H8C3.58172 40 0 36.4183 0 32V8Z" fill="#00BCD4"/>
<path d="M29.4382 16.4081C29.41 16.3428 29.3679 16.2842 29.3156 16.2337C29.3136 16.2319 29.3132 16.2293 29.3111 16.2275C29.3103 16.2267 29.3091 16.2264 29.3079 16.2256C29.2527 16.1744 29.1869 16.1327 29.1129 16.1036C29.1121 16.1033 29.1113 16.1029 29.1101 16.1025C29.0418 16.076 28.9666 16.0616 28.8886 16.0594C28.8849 16.0594 28.8816 16.0587 28.8784 16.0587C28.8751 16.0587 28.8718 16.0579 28.869 16.0579C28.7958 16.0579 28.7268 16.0716 28.6618 16.0926C28.6561 16.0944 28.6507 16.0951 28.645 16.0974C28.5727 16.1228 28.5077 16.1608 28.4513 16.2079C28.4493 16.2098 28.4464 16.2101 28.4444 16.212L27.8302 16.7435L28.4419 15.2916C28.8113 14.4133 28.5756 13.4606 27.9237 12.8049C29.502 11.7883 29.5894 10.9756 29.4783 10.5547C29.3504 10.0719 28.8841 9.74935 28.2609 9.71323C27.7308 9.683 27.1089 9.85734 26.5277 10.2661C26.3957 9.61334 26.059 9.11023 25.6369 8.8139C25.1444 8.46817 24.5592 8.42984 24.1068 8.71401C23.7137 8.96207 23.1804 9.62219 23.6124 11.3283C22.6422 11.4282 21.764 11.9988 21.3933 12.8771L20.0492 16.0686C19.9528 16.0605 19.8555 16.0668 19.7644 16.0999C19.7121 15.616 19.6291 15.1247 19.511 14.6297C18.6455 11.008 16.3275 8.49066 14.2283 8.8972C12.7031 9.1939 11.782 10.9483 11.7244 13.2759C11.7007 13.3935 11.6999 13.5147 11.7215 13.6382C11.7317 14.4085 11.831 15.2319 12.0346 16.0834V16.0837C12.0346 16.0837 12.0346 16.0837 12.0346 16.0841C12.093 16.3277 12.1592 16.5673 12.2311 16.8032L11.5495 16.2127C11.5474 16.2109 11.5442 16.2105 11.5421 16.2087C11.4865 16.1619 11.422 16.1243 11.3496 16.0985C11.3431 16.0963 11.337 16.0951 11.3304 16.0929C11.2659 16.0719 11.1972 16.0587 11.1249 16.0587C11.122 16.0587 11.1196 16.0594 11.1167 16.0594C11.1118 16.0594 11.1073 16.0605 11.1024 16.0605C11.0252 16.0631 10.9512 16.0771 10.8838 16.1029C10.8825 16.1033 10.8817 16.104 10.8805 16.1047C10.8069 16.1335 10.7411 16.1751 10.6856 16.2264C10.6847 16.2271 10.6835 16.2275 10.6823 16.2282C10.6803 16.23 10.6798 16.233 10.6778 16.2348C10.6259 16.285 10.5842 16.3436 10.5556 16.4084C10.5532 16.4143 10.5519 16.4199 10.5495 16.4258C10.5262 16.484 10.5115 16.5459 10.5115 16.6112V30.3355C10.5115 30.9912 11.16 31.5249 11.9569 31.5249H28.0353C28.8322 31.5249 29.4807 30.9916 29.4807 30.3355V16.6104C29.4807 16.5448 29.466 16.4829 29.4427 16.4247C29.4419 16.4191 29.4407 16.4136 29.4382 16.4081ZM27.8767 10.8521C28.0962 10.7946 28.2343 10.816 28.287 10.8333C28.274 10.9745 28.0177 11.461 26.8273 12.1381L26.4869 12.0216C27.0128 11.1455 27.6651 10.9078 27.8767 10.8521ZM24.7934 9.63583C24.8453 9.65425 24.9638 9.72097 25.086 9.89567C25.2037 10.0641 25.5122 10.6336 25.2625 11.6014L24.9295 11.4872C24.5408 10.2735 24.6994 9.74898 24.7934 9.63583ZM22.5408 13.2685C22.8281 12.5859 23.6786 12.2413 24.4354 12.5008L25.4378 12.8447C25.4387 12.845 25.4395 12.8454 25.4403 12.8458C25.4411 12.8461 25.4419 12.8461 25.4427 12.8461L26.4456 13.19C27.2024 13.4491 27.5841 14.2158 27.2968 14.898L26.2384 17.4091L24.8535 16.2112C24.6164 16.0059 24.2417 16.0059 24.0047 16.2112L22.2111 17.7641L21.0652 16.7711L22.5408 13.2685ZM14.4873 9.97639C15.6913 9.74566 17.556 11.6918 18.3132 14.8608C18.4922 15.6086 18.5846 16.3436 18.5985 17.0527L17.7767 17.7644L15.9843 16.2116C15.7472 16.0059 15.3721 16.0063 15.1351 16.2116L13.7399 17.4202C13.556 16.9698 13.4007 16.4969 13.2757 16.0052C13.5699 15.7771 14.6173 15.3193 16.359 14.9806C16.69 14.9161 16.9005 14.6219 16.829 14.3238C16.7579 14.0252 16.4313 13.8361 16.1007 13.8999C15.0448 14.1052 14.0668 14.3864 13.3476 14.6916C13.2716 14.7237 13.1629 14.7701 13.0411 14.8291C12.9814 14.4096 12.9471 14.0053 12.9406 13.6238C12.9418 13.6047 12.9422 13.5855 12.941 13.5663C12.9406 13.5276 12.9422 13.49 12.9422 13.4513C13.0108 13.2689 13.6275 12.7765 14.8588 12.5369C15.1898 12.4724 15.4003 12.1783 15.3288 11.8797C15.2573 11.5812 14.9307 11.3914 14.6001 11.4559C14.0676 11.5594 13.5486 11.7246 13.0991 11.9354C13.3484 10.8249 13.8641 10.0977 14.4873 9.97639ZM28.0369 30.4181H11.9585C11.8249 30.4181 11.746 30.3565 11.7391 30.3344V17.9082L12.9185 18.9299C13.1555 19.1355 13.5307 19.1352 13.7677 18.9299L15.5601 17.3774L17.3525 18.9302C17.5895 19.1359 17.9642 19.1359 18.2017 18.9302L19.6369 17.6874C19.6438 17.6815 19.6508 17.6756 19.6577 17.6693L19.9949 17.3774L21.7869 18.9299C22.0239 19.1352 22.3986 19.1359 22.6361 18.9299L24.4297 17.3767L26.2257 18.9299C26.3443 19.0323 26.4971 19.0836 26.6499 19.0836C26.8028 19.0836 26.9556 19.0323 27.0741 18.9299L28.2572 17.9067L28.2576 30.3329C28.249 30.3561 28.1702 30.4181 28.0369 30.4181Z" fill="white"/>
</svg>
