<svg width="40" height="40" viewBox="0 0 40 40" fill="none" xmlns="http://www.w3.org/2000/svg">
<path d="M0 8C0 3.58172 3.58172 0 8 0H32C36.4183 0 40 3.58172 40 8V32C40 36.4183 36.4183 40 32 40H8C3.58172 40 0 36.4183 0 32V8Z" fill="#00BCD4"/>
<g clip-path="url(#clip0)">
<path d="M24.1942 21.3816H12.0757L22.5698 14.7093C22.6003 14.6899 22.6267 14.6647 22.6475 14.6351C22.6683 14.6054 22.683 14.572 22.6909 14.5367C22.6987 14.5014 22.6996 14.4649 22.6933 14.4292C22.687 14.3936 22.6738 14.3595 22.6544 14.329L21.6147 12.6938C21.3776 12.3218 21.0026 12.059 20.5719 11.9631C20.1413 11.8672 19.6902 11.9461 19.3177 12.1824L17.841 13.1213L17.958 12.5616C18.0041 12.3592 18.0098 12.1498 17.9747 11.9452C17.9396 11.7407 17.8644 11.5451 17.7535 11.3697C17.6426 11.1942 17.4981 11.0425 17.3284 10.9231C17.1586 10.8037 16.9669 10.719 16.7644 10.6739C16.5618 10.6288 16.3523 10.6241 16.1479 10.6603C15.9436 10.6964 15.7483 10.7725 15.5735 10.8843C15.3986 10.9961 15.2476 11.1413 15.129 11.3117C15.0105 11.482 14.9267 11.6741 14.8826 11.8769L14.1155 15.3226L11.5468 14.7508C11.1637 14.6655 10.7626 14.7261 10.4219 14.921C10.0812 15.1159 9.82555 15.4309 9.70493 15.8043C9.58432 16.1778 9.60745 16.5829 9.76981 16.9402C9.93216 17.2975 10.222 17.5813 10.5827 17.7362L9.00073 18.742C8.6287 18.9791 8.36593 19.3541 8.27005 19.7848C8.17417 20.2154 8.25302 20.6664 8.48929 21.039L9.52901 22.6742C9.54841 22.7048 9.57364 22.7312 9.60326 22.752C9.63287 22.7728 9.66629 22.7875 9.7016 22.7954C9.73691 22.8032 9.77343 22.8041 9.80906 22.7978C9.8447 22.7916 9.87875 22.7784 9.90928 22.759L10.8771 22.1438V29.1169C10.8776 29.5581 11.053 29.981 11.365 30.293C11.677 30.6049 12.0999 30.7804 12.5411 30.7808H22.8058C23.2469 30.7803 23.6699 30.6049 23.9818 30.2929C24.2938 29.981 24.4692 29.5581 24.4697 29.1169V21.657C24.4697 21.6208 24.4626 21.585 24.4487 21.5516C24.4349 21.5182 24.4146 21.4878 24.389 21.4622C24.3634 21.4366 24.333 21.4163 24.2996 21.4025C24.2662 21.3887 24.2304 21.3816 24.1942 21.3816ZM19.6133 12.6473C19.791 12.5337 19.9974 12.4733 20.2083 12.4732C20.2904 12.4732 20.3723 12.4822 20.4524 12.5001C20.5952 12.5315 20.7304 12.5909 20.8501 12.6749C20.9698 12.7589 21.0716 12.8658 21.1498 12.9894L22.0417 14.3922L17.7032 17.1507L16.2141 14.8087L19.6133 12.6473ZM15.4204 11.9967C15.4799 11.7316 15.6423 11.501 15.8718 11.3556C16.1013 11.2102 16.3792 11.162 16.6443 11.2215C16.9094 11.281 17.14 11.4434 17.2854 11.6729C17.4308 11.9024 17.479 12.1803 17.4195 12.4454L17.1934 13.5272L14.7295 15.0996L15.4204 11.9967ZM15.7491 15.1043L17.2382 17.4463L14.7242 19.0447L13.2351 16.7027L15.7491 15.1043ZM10.34 16.8382C10.2312 16.6672 10.1757 16.4679 10.1803 16.2653C10.1848 16.0627 10.2494 15.8661 10.3658 15.7002C10.4821 15.5343 10.6451 15.4067 10.834 15.3334C11.0229 15.2601 11.2293 15.2445 11.4271 15.2886L13.653 15.7841L11.182 17.3331L10.9818 17.2884C10.8503 17.2596 10.7259 17.2049 10.6158 17.1276C10.5056 17.0503 10.4119 16.952 10.34 16.8382ZM9.8462 22.1462L8.95431 20.7434C8.79626 20.4942 8.74351 20.1925 8.80763 19.9045C8.87175 19.6164 9.04751 19.3656 9.29634 19.207L12.7702 16.9983L14.2593 19.3403L9.8462 22.1462ZM15.1879 30.2299H12.5411C12.246 30.2296 11.9631 30.1122 11.7544 29.9036C11.5458 29.6949 11.4284 29.412 11.4281 29.1169V21.9325H15.1881L15.1879 30.2299ZM18.6892 30.2299H15.7388V21.9325H18.6892V30.2299ZM23.9187 29.1169C23.9184 29.412 23.801 29.6949 23.5924 29.9035C23.3837 30.1122 23.1008 30.2296 22.8058 30.2299H19.2401V21.9325H23.9187V29.1169Z" fill="white"/>
<path fill-rule="evenodd" clip-rule="evenodd" d="M16.0774 10.2604C16.3344 10.215 16.5979 10.2209 16.8527 10.2776C17.1075 10.3343 17.3486 10.4408 17.5621 10.591C17.7756 10.7412 17.9573 10.9321 18.0968 11.1527C18.2363 11.3733 18.3309 11.6194 18.375 11.8766C18.3981 12.0112 18.4071 12.1475 18.4022 12.2834L19.1003 11.8395C19.5637 11.5456 20.1247 11.4475 20.6603 11.5668C21.1959 11.6861 21.6623 12.0129 21.9572 12.4756L22.9971 14.1111C22.9971 14.1112 22.9971 14.1111 22.9971 14.1111C23.0452 14.1867 23.0779 14.271 23.0933 14.3591C23.1088 14.4473 23.1068 14.5376 23.0873 14.625C23.0679 14.7124 23.0314 14.7951 22.98 14.8684C22.9286 14.9417 22.8632 15.0041 22.7877 15.0521L13.4713 20.9756H24.1941C24.1942 20.9756 24.1941 20.9756 24.1941 20.9756C24.2836 20.9756 24.3723 20.9932 24.455 21.0274C24.5377 21.0616 24.6129 21.1118 24.6762 21.1751C24.7395 21.2384 24.7897 21.3135 24.824 21.3962C24.8583 21.4789 24.8759 21.5676 24.8759 21.6571V29.1174C24.8753 29.6661 24.657 30.1922 24.269 30.5802C23.8811 30.9681 23.355 31.1864 22.8063 31.187H12.5407C11.992 31.1864 11.466 30.9682 11.0779 30.5802C10.6899 30.1922 10.4717 29.6661 10.4711 29.1174L10.4711 22.8832L10.1272 23.1017C10.1272 23.1017 10.1272 23.1017 10.1272 23.1017C10.0517 23.1497 9.96743 23.1824 9.87927 23.1979C9.79111 23.2133 9.70076 23.2113 9.61339 23.1918C9.52602 23.1724 9.44334 23.1359 9.37007 23.0845C9.29682 23.033 9.23441 22.9677 9.18641 22.8922C9.18639 22.8922 9.18642 22.8922 9.18641 22.8922L8.14669 21.257L8.14644 21.2566C7.85257 20.7932 7.7545 20.2322 7.87375 19.6966C7.993 19.161 8.31984 18.6946 8.78255 18.3997L9.84101 17.7266C9.65712 17.5523 9.50679 17.3429 9.40018 17.1082C9.19598 16.6588 9.16688 16.1494 9.31858 15.6796C9.47028 15.2099 9.79186 14.8137 10.2204 14.5686C10.6488 14.3235 11.1533 14.2472 11.6351 14.3545C11.6351 14.3545 11.6351 14.3545 11.6351 14.3545L13.8074 14.8381L14.4859 11.7907C14.486 11.7903 14.4861 11.79 14.4861 11.7896C14.5417 11.5349 14.6469 11.2937 14.7958 11.0798C14.9449 10.8655 15.1349 10.6828 15.3548 10.5422C15.5748 10.4016 15.8203 10.3059 16.0774 10.2604ZM19.5353 12.5253L19.6134 12.6474L19.5356 12.5251M19.3955 12.3047L19.3178 12.1824L19.3954 12.3048C19.3953 12.3049 19.3952 12.305 19.3951 12.305C19.3949 12.3051 19.3948 12.3052 19.3946 12.3053L18.2781 13.0152L18.3549 12.6481M10.34 16.8383L10.6833 16.6213C10.7265 16.6897 10.7829 16.7488 10.8491 16.7952C10.9153 16.8417 10.99 16.8745 11.069 16.8919L11.0702 16.8922L11.1077 16.9005L12.5991 15.9656L11.3389 15.685C11.2195 15.6584 11.0949 15.6679 10.9809 15.7121C10.8669 15.7563 10.7685 15.8334 10.6983 15.9335C10.6281 16.0336 10.5891 16.1523 10.5863 16.2746C10.5835 16.3968 10.6171 16.5172 10.6827 16.6204L10.34 16.8383ZM15.3395 14.2287L16.8309 13.2769L17.0227 12.3595L17.0234 12.3566C17.0593 12.1965 17.0302 12.0288 16.9424 11.8903C16.8547 11.7517 16.7155 11.6537 16.5555 11.6178C16.3954 11.5819 16.2277 11.611 16.0892 11.6987C15.9507 11.7864 15.8527 11.9255 15.8167 12.0854C15.8167 12.0855 15.8167 12.0856 15.8167 12.0857L15.3395 14.2287ZM20.2084 12.8793C20.0751 12.8794 19.9445 12.9177 19.8322 12.9895L19.8313 12.9901L16.7747 14.9335L17.8281 16.5902L21.4812 14.2675L20.8066 13.2064C20.7571 13.1282 20.6927 13.0606 20.6169 13.0074C20.5412 12.9543 20.4556 12.9167 20.3653 12.8968L20.3641 12.8965C20.313 12.8851 20.2608 12.8794 20.2084 12.8793ZM13.7958 16.8276L14.8491 18.4842L16.6777 17.3216L15.6244 15.6649L13.7958 16.8276ZM12.6455 17.5589L9.5147 19.5495C9.51466 19.5495 9.51474 19.5494 9.5147 19.5495C9.35662 19.6503 9.24484 19.8098 9.20409 19.9928C9.16336 20.1758 9.19683 20.3674 9.29714 20.5257C9.2972 20.5258 9.29726 20.5259 9.29732 20.526L9.97109 21.5857L13.6988 19.2156L12.6455 17.5589ZM11.8342 22.3386L11.8342 29.1165C11.8342 29.1166 11.8342 29.1167 11.8342 29.1167C11.8345 29.3042 11.9091 29.4839 12.0417 29.6165C12.1743 29.7491 12.3541 29.8237 12.5416 29.8239H14.7819L14.7821 22.3386H11.8342ZM16.145 22.3386V29.8239H18.2832V22.3386H16.145ZM19.6463 22.3386V29.8239H22.8054C22.9929 29.8237 23.1727 29.7491 23.3053 29.6165C23.4379 29.4838 23.5125 29.304 23.5127 29.1165V22.3386H19.6463Z" fill="white"/>
<path d="M27.2746 18.8794L27.4063 18.1111C27.415 18.0604 27.4093 18.0084 27.39 17.9608C27.3706 17.9132 27.3383 17.872 27.2968 17.8418C27.2552 17.8116 27.206 17.7936 27.1548 17.7899C27.1035 17.7861 27.0523 17.7968 27.0068 17.8207L26.3168 18.1834L25.6269 17.8207C25.5814 17.7968 25.5301 17.7861 25.4788 17.7898C25.4275 17.7935 25.3783 17.8115 25.3367 17.8417C25.2952 17.8719 25.2629 17.9131 25.2435 17.9607C25.2241 18.0083 25.2185 18.0604 25.2272 18.1111L25.3589 18.8794L24.8008 19.4234C24.7639 19.4593 24.7379 19.5048 24.7256 19.5547C24.7132 19.6046 24.7151 19.6569 24.731 19.7058C24.7469 19.7547 24.7761 19.7982 24.8154 19.8313C24.8547 19.8644 24.9025 19.8859 24.9534 19.8933L25.7247 20.0054L26.0697 20.7044C26.0924 20.7505 26.1276 20.7893 26.1712 20.8165C26.2149 20.8436 26.2653 20.858 26.3167 20.858C26.3681 20.858 26.4185 20.8436 26.4621 20.8165C26.5058 20.7893 26.541 20.7505 26.5637 20.7044L26.9087 20.0054L27.6799 19.8933C27.7308 19.8859 27.7786 19.8644 27.8179 19.8313C27.8572 19.7982 27.8864 19.7547 27.9023 19.7058C27.9182 19.6569 27.9201 19.6046 27.9078 19.5547C27.8954 19.5048 27.8694 19.4593 27.8326 19.4234L27.2746 18.8794ZM26.6861 19.4808C26.6419 19.4872 26.6 19.5043 26.5638 19.5305C26.5277 19.5568 26.4985 19.5914 26.4787 19.6315L26.3167 19.9598L26.1546 19.6315C26.1349 19.5914 26.1057 19.5568 26.0695 19.5306C26.0334 19.5043 25.9914 19.4872 25.9473 19.4808L25.5848 19.4281L25.8471 19.1726C25.8791 19.1414 25.903 19.1029 25.9168 19.0604C25.9306 19.018 25.9339 18.9728 25.9263 18.9287L25.8644 18.5678L26.1885 18.7382C26.228 18.759 26.272 18.7698 26.3167 18.7698C26.3614 18.7698 26.4053 18.759 26.4449 18.7382L26.769 18.5678L26.7071 18.9287C26.6995 18.9728 26.7028 19.018 26.7166 19.0604C26.7304 19.1029 26.7543 19.1414 26.7863 19.1726L27.0485 19.4281L26.6861 19.4808Z" fill="white"/>
<path d="M30.4425 15.0839L29.6849 14.8998L29.4071 14.1715C29.3888 14.1235 29.3575 14.0815 29.3165 14.0504C29.2756 14.0193 29.2268 14.0002 29.1756 13.9954C29.1245 13.9905 29.073 14.0001 29.0269 14.023C28.9809 14.0459 28.9422 14.0813 28.9153 14.125L28.5062 14.7886L27.7277 14.8277C27.6763 14.8303 27.6268 14.8472 27.5845 14.8765C27.5423 14.9058 27.5091 14.9463 27.4887 14.9935C27.4683 15.0407 27.4615 15.0926 27.4691 15.1434C27.4766 15.1943 27.4983 15.242 27.5316 15.2811L28.0361 15.8753L27.8329 16.6277C27.8195 16.6773 27.8202 16.7297 27.835 16.7789C27.8498 16.8282 27.8781 16.8723 27.9167 16.9062C27.9552 16.9402 28.0025 16.9627 28.0532 16.9712C28.1039 16.9797 28.156 16.9739 28.2035 16.9544L28.9243 16.6581L29.5775 17.084C29.6205 17.112 29.6706 17.1275 29.7219 17.1286C29.7733 17.1298 29.824 17.1165 29.8682 17.0903C29.9125 17.0642 29.9485 17.0261 29.9722 16.9806C29.996 16.935 30.0065 16.8837 30.0026 16.8324L29.9436 16.0552L30.5503 15.5659C30.5902 15.5337 30.6204 15.4909 30.6374 15.4423C30.6543 15.3938 30.6573 15.3415 30.6461 15.2914C30.6349 15.2412 30.6099 15.1952 30.5739 15.1586C30.5379 15.1219 30.4924 15.096 30.4425 15.0839ZM29.485 15.7174C29.4502 15.7455 29.4228 15.7815 29.4051 15.8225C29.3873 15.8635 29.3798 15.9082 29.3832 15.9527L29.4108 16.3178L29.104 16.1177C29.0666 16.0933 29.0239 16.0784 28.9794 16.0742C28.935 16.07 28.8901 16.0767 28.8488 16.0936L28.5102 16.2328L28.6057 15.8793C28.6173 15.8362 28.6183 15.7909 28.6086 15.7474C28.5988 15.7038 28.5786 15.6632 28.5497 15.6292L28.3127 15.3501L28.6784 15.3317C28.723 15.3295 28.7664 15.3165 28.8049 15.2937C28.8433 15.271 28.8757 15.2393 28.8991 15.2013L29.0912 14.8896L29.2217 15.2317C29.2376 15.2734 29.2635 15.3106 29.297 15.3402C29.3305 15.3697 29.3706 15.3906 29.414 15.4011L29.7699 15.4876L29.485 15.7174Z" fill="white"/>
<path d="M26.3914 10.6059L26.188 11.3584C26.1746 11.408 26.1753 11.4604 26.1901 11.5096C26.2049 11.5588 26.2332 11.6029 26.2718 11.6369C26.3103 11.6709 26.3576 11.6934 26.4083 11.702C26.459 11.7105 26.5111 11.7046 26.5586 11.6851L27.2794 11.3887L27.9323 11.8147C27.9754 11.8428 28.0254 11.8583 28.0768 11.8594C28.1282 11.8605 28.1789 11.8472 28.2231 11.8211C28.2673 11.7949 28.3034 11.7569 28.3271 11.7113C28.3509 11.6657 28.3614 11.6144 28.3575 11.5631L28.2985 10.7859L28.9052 10.2966C28.9452 10.2643 28.9754 10.2215 28.9924 10.173C29.0093 10.1245 29.0123 10.0722 29.0011 10.0221C28.9899 9.97191 28.9649 9.92589 28.9289 9.88922C28.8929 9.85255 28.8474 9.82667 28.7974 9.81452L28.0399 9.63047L27.7622 8.90216C27.7439 8.85413 27.7125 8.81218 27.6715 8.78106C27.6306 8.74994 27.5818 8.73089 27.5306 8.72607C27.4795 8.72125 27.428 8.73084 27.382 8.75376C27.3359 8.77669 27.2973 8.81203 27.2703 8.85579L26.8612 9.51928L26.0827 9.55839C26.0314 9.56097 25.9818 9.57785 25.9395 9.60714C25.8973 9.63643 25.8641 9.67695 25.8437 9.72412C25.8233 9.77129 25.8165 9.82323 25.824 9.87407C25.8316 9.92491 25.8533 9.97261 25.8865 10.0118L26.3914 10.6059ZM27.0337 10.0622C27.0783 10.0599 27.1217 10.0469 27.1601 10.0241C27.1985 10.0014 27.2309 9.96965 27.2543 9.93164L27.4465 9.61995L27.577 9.96207C27.5929 10.0038 27.6187 10.041 27.6522 10.0706C27.6857 10.1001 27.7259 10.121 27.7693 10.1316L28.1251 10.218L27.8401 10.4478C27.8053 10.4759 27.7779 10.5119 27.7602 10.5529C27.7424 10.5939 27.7349 10.6386 27.7383 10.6831L27.7658 11.0483L27.4591 10.8482C27.4217 10.8238 27.3789 10.8088 27.3345 10.8047C27.29 10.8005 27.2452 10.8071 27.2039 10.8241L26.8653 10.9633L26.9608 10.6098C26.9724 10.5667 26.9734 10.5214 26.9637 10.4778C26.9539 10.4342 26.9337 10.3936 26.9048 10.3596L26.6678 10.0805L27.0337 10.0622Z" fill="white"/>
<path d="M21.394 18.9188C20.7721 19.3102 20.4683 19.7844 20.4557 19.8044C20.4166 19.8661 20.4035 19.9409 20.4195 20.0122C20.4355 20.0834 20.4791 20.1455 20.5408 20.1846C20.6025 20.2237 20.6772 20.2367 20.7485 20.2208C20.8198 20.2048 20.8818 20.1612 20.9209 20.0995C20.9622 20.0352 21.9589 18.5287 24.1282 19.0653C24.1988 19.0821 24.2732 19.0703 24.3352 19.0325C24.3973 18.9947 24.4418 18.934 24.4593 18.8635C24.4767 18.793 24.4656 18.7185 24.4284 18.6561C24.3912 18.5938 24.3309 18.5486 24.2605 18.5305C22.9259 18.2003 21.965 18.5594 21.394 18.9188Z" fill="white"/>
<path d="M26.6209 16.0016C26.6884 16.0296 26.7642 16.0297 26.8317 16.0018C26.8992 15.9739 26.9529 15.9203 26.9809 15.8528C27.0089 15.7853 27.009 15.7095 26.9811 15.6419C26.9531 15.5744 26.8996 15.5208 26.8321 15.4928C24.8711 14.6789 23.4458 15.2884 22.5955 15.943C22.0314 16.3817 21.5645 16.9327 21.2243 17.5612C21.2082 17.5936 21.1987 17.6288 21.1962 17.6649C21.1937 17.701 21.1984 17.7372 21.2099 17.7715C21.2215 17.8058 21.2396 17.8375 21.2634 17.8647C21.2872 17.892 21.3161 17.9143 21.3485 17.9304C21.3809 17.9465 21.4162 17.956 21.4522 17.9585C21.4883 17.961 21.5246 17.9563 21.5588 17.9448C21.5931 17.9332 21.6248 17.9151 21.6521 17.8913C21.6793 17.8675 21.7016 17.8386 21.7177 17.8062C22.0213 17.2532 22.4343 16.7677 22.9316 16.3795C24.0007 15.5566 25.242 15.4294 26.6209 16.0016Z" fill="white"/>
<path d="M23.5256 13.9612C23.5031 14.0307 23.5091 14.1063 23.5424 14.1714C23.5756 14.2364 23.6334 14.2856 23.7029 14.3081C24.0821 14.4198 24.4754 14.4766 24.8707 14.4768C25.3314 14.4768 25.8634 14.3937 26.3405 14.1109C26.9649 13.7409 27.3652 13.1106 27.5312 12.2378C27.538 12.2022 27.5379 12.1656 27.5306 12.13C27.5233 12.0945 27.5091 12.0608 27.4887 12.0308C27.4684 12.0008 27.4423 11.9751 27.412 11.9552C27.3817 11.9353 27.3478 11.9215 27.3121 11.9148C27.2765 11.908 27.2399 11.9083 27.2044 11.9157C27.1689 11.9231 27.1353 11.9375 27.1053 11.9579C27.0754 11.9784 27.0498 12.0046 27.03 12.0349C27.0102 12.0653 26.9966 12.0993 26.9899 12.1349C26.855 12.8447 26.5429 13.3497 26.062 13.6357C25.1475 14.1799 23.892 13.7903 23.8721 13.784C23.8027 13.7616 23.7272 13.7677 23.6622 13.8009C23.5972 13.8341 23.5481 13.8918 23.5256 13.9612Z" fill="white"/>
<path d="M19.8845 21.0784C19.9826 21.0784 20.0785 21.0493 20.1601 20.9948C20.2417 20.9403 20.3053 20.8628 20.3429 20.7722C20.3804 20.6815 20.3902 20.5818 20.3711 20.4855C20.352 20.3893 20.3047 20.3009 20.2353 20.2315C20.166 20.1621 20.0776 20.1149 19.9813 20.0957C19.8851 20.0766 19.7853 20.0864 19.6947 20.1239C19.604 20.1615 19.5266 20.2251 19.472 20.3067C19.4175 20.3882 19.3884 20.4842 19.3884 20.5823C19.3886 20.7138 19.4409 20.8399 19.5339 20.9329C19.6269 21.0259 19.753 21.0782 19.8845 21.0784ZM19.8845 20.5275C19.8953 20.5275 19.906 20.5307 19.915 20.5367C19.924 20.5427 19.931 20.5513 19.9352 20.5613C19.9394 20.5713 19.9405 20.5824 19.9383 20.593C19.9362 20.6037 19.931 20.6134 19.9233 20.6211C19.9156 20.6288 19.9059 20.634 19.8952 20.6361C19.8846 20.6382 19.8735 20.6372 19.8635 20.633C19.8535 20.6288 19.8449 20.6218 19.8389 20.6128C19.8329 20.6037 19.8297 20.5931 19.8297 20.5823C19.8297 20.5678 19.8355 20.5539 19.8458 20.5436C19.8561 20.5333 19.87 20.5275 19.8845 20.5275Z" fill="white"/>
<path d="M23.7878 12.0801C23.886 12.0801 23.9819 12.051 24.0635 11.9965C24.145 11.942 24.2086 11.8645 24.2462 11.7738C24.2837 11.6832 24.2936 11.5834 24.2744 11.4872C24.2553 11.391 24.208 11.3026 24.1386 11.2332C24.0693 11.1638 23.9809 11.1166 23.8846 11.0974C23.7884 11.0783 23.6886 11.0881 23.598 11.1257C23.5073 11.1632 23.4299 11.2268 23.3754 11.3084C23.3208 11.39 23.2917 11.4859 23.2917 11.584C23.2919 11.7155 23.3442 11.8416 23.4372 11.9346C23.5302 12.0276 23.6563 12.0799 23.7878 12.0801ZM23.7878 11.5292C23.7987 11.5292 23.8093 11.5324 23.8183 11.5384C23.8274 11.5445 23.8344 11.553 23.8385 11.5631C23.8427 11.5731 23.8438 11.5841 23.8417 11.5948C23.8395 11.6054 23.8343 11.6152 23.8266 11.6228C23.8189 11.6305 23.8092 11.6357 23.7985 11.6379C23.7879 11.64 23.7768 11.6389 23.7668 11.6347C23.7568 11.6306 23.7482 11.6235 23.7422 11.6145C23.7362 11.6055 23.733 11.5948 23.733 11.584C23.7331 11.5695 23.7389 11.5556 23.7491 11.5453C23.7594 11.535 23.7733 11.5292 23.7878 11.5292Z" fill="white"/>
<path d="M30.7803 11.7017C30.6822 11.7017 30.5862 11.7308 30.5047 11.7853C30.4231 11.8398 30.3595 11.9173 30.3219 12.0079C30.2844 12.0986 30.2746 12.1983 30.2937 12.2946C30.3129 12.3908 30.3601 12.4792 30.4295 12.5486C30.4989 12.618 30.5873 12.6652 30.6835 12.6843C30.7798 12.7035 30.8795 12.6936 30.9702 12.6561C31.0608 12.6185 31.1383 12.5549 31.1928 12.4733C31.2473 12.3918 31.2764 12.2958 31.2764 12.1977C31.2762 12.0662 31.2239 11.9401 31.1309 11.8471C31.0379 11.7541 30.9118 11.7018 30.7803 11.7017ZM30.7803 12.2526C30.7694 12.2526 30.7588 12.2494 30.7498 12.2433C30.7408 12.2373 30.7337 12.2287 30.7296 12.2187C30.7254 12.2087 30.7244 12.1977 30.7265 12.187C30.7286 12.1764 30.7338 12.1666 30.7415 12.1589C30.7492 12.1512 30.7589 12.146 30.7696 12.1439C30.7802 12.1418 30.7913 12.1429 30.8013 12.147C30.8113 12.1512 30.8199 12.1582 30.8259 12.1672C30.8319 12.1763 30.8351 12.1869 30.8351 12.1977C30.8351 12.2122 30.8293 12.2262 30.819 12.2364C30.8087 12.2467 30.7948 12.2525 30.7803 12.2526Z" fill="white"/>
<path d="M19.6817 18.2852C19.6817 18.187 19.6525 18.0911 19.598 18.0095C19.5435 17.9279 19.466 17.8643 19.3753 17.8268C19.2847 17.7893 19.1849 17.7795 19.0887 17.7986C18.9924 17.8178 18.904 17.8651 18.8347 17.9345C18.7653 18.0039 18.7181 18.0923 18.699 18.1885C18.6798 18.2848 18.6897 18.3846 18.7273 18.4752C18.7649 18.5659 18.8285 18.6433 18.9101 18.6978C18.9918 18.7523 19.0877 18.7813 19.1858 18.7813C19.3173 18.7811 19.4433 18.7287 19.5363 18.6357C19.6292 18.5427 19.6815 18.4166 19.6817 18.2852ZM19.1858 18.3403C19.175 18.3403 19.1644 18.3371 19.1554 18.331C19.1463 18.325 19.1393 18.3165 19.1351 18.3065C19.131 18.2965 19.1299 18.2854 19.132 18.2748C19.134 18.2642 19.1392 18.2544 19.1469 18.2467C19.1545 18.239 19.1643 18.2338 19.1749 18.2316C19.1856 18.2295 19.1966 18.2305 19.2066 18.2346C19.2166 18.2388 19.2252 18.2458 19.2313 18.2547C19.2373 18.2637 19.2406 18.2743 19.2406 18.2852C19.2406 18.2997 19.2348 18.3137 19.2244 18.324C19.2141 18.3342 19.2002 18.34 19.1856 18.34L19.1858 18.3403Z" fill="white"/>
<path d="M29.9631 18.5964C29.865 18.5964 29.7691 18.6255 29.6875 18.68C29.6059 18.7346 29.5424 18.812 29.5048 18.9027C29.4673 18.9933 29.4574 19.0931 29.4766 19.1893C29.4957 19.2856 29.543 19.374 29.6123 19.4433C29.6817 19.5127 29.7701 19.56 29.8664 19.5791C29.9626 19.5982 30.0623 19.5884 30.153 19.5509C30.2436 19.5133 30.3211 19.4497 30.3756 19.3682C30.4301 19.2866 30.4592 19.1907 30.4592 19.0925C30.4591 18.961 30.4068 18.8349 30.3138 18.7419C30.2208 18.6489 30.0947 18.5966 29.9631 18.5964ZM29.9631 19.1474C29.9523 19.1473 29.9417 19.1441 29.9327 19.1381C29.9237 19.1321 29.9167 19.1235 29.9125 19.1135C29.9084 19.1035 29.9073 19.0924 29.9094 19.0818C29.9116 19.0712 29.9168 19.0614 29.9244 19.0538C29.9321 19.0461 29.9419 19.0409 29.9525 19.0388C29.9631 19.0367 29.9742 19.0377 29.9842 19.0419C29.9942 19.046 30.0027 19.0531 30.0088 19.0621C30.0148 19.0711 30.018 19.0817 30.018 19.0925C30.0179 19.1071 30.0121 19.121 30.0019 19.1312C29.9916 19.1415 29.9777 19.1473 29.9631 19.1474Z" fill="white"/>
</g>
<defs>
<clipPath id="clip0">
<rect width="23.5058" height="23.5058" fill="white" transform="translate(8 8)"/>
</clipPath>
</defs>
</svg>
