<svg width="40" height="40" viewBox="0 0 40 40" fill="none" xmlns="http://www.w3.org/2000/svg">
<path d="M0 8C0 3.58172 3.58172 0 8 0H32C36.4183 0 40 3.58172 40 8V32C40 36.4183 36.4183 40 32 40H8C3.58172 40 0 36.4183 0 32V8Z" fill="#00BCD4"/>
<g clip-path="url(#clip0)">
<path d="M12.1318 25.9697C12.1318 26.1907 12.3109 26.3698 12.5319 26.3698C12.753 26.3698 12.9321 26.1907 12.9321 25.9697V15.0467C12.9321 15.013 12.9277 14.9794 12.9194 14.9465L11.8565 10.8286L16.6258 9.12342C16.6532 9.32993 16.6937 9.53518 16.7485 9.73562C16.8419 10.0772 16.9717 10.3903 17.1337 10.6664C17.3425 11.0221 17.605 11.3174 17.9142 11.5442C18.7638 12.1675 20.3107 12.2605 21.292 11.9397C21.7109 11.8024 22.0932 11.5666 22.3973 11.2575C22.6492 11.0016 22.8592 10.6883 23.0216 10.3265C23.1445 10.0523 23.2392 9.75255 23.3032 9.43611C23.3243 9.33139 23.342 9.22709 23.3558 9.12384L24.2636 9.44844C24.4716 9.52285 24.7006 9.41458 24.775 9.2064C24.8495 8.99822 24.741 8.76935 24.533 8.69494L23.41 8.29343C23.3667 8.27775 23.3211 8.27002 23.2752 8.27002H16.705C16.659 8.27002 16.6135 8.27796 16.5702 8.29343L11.2431 10.198C11.2347 10.2011 11.2268 10.2047 11.2186 10.208C11.2157 10.2092 11.2126 10.2103 11.2096 10.2118C11.1963 10.2178 11.1835 10.2247 11.1712 10.2322C11.1705 10.2325 11.1699 10.2327 11.1695 10.2331C8.9366 11.5938 7.44362 14.8767 6.73214 19.9911C6.34713 22.7586 6.28171 25.4522 6.29112 27.1657C6.29091 27.1693 6.29049 27.1728 6.29049 27.1764C6.28924 27.6527 6.30387 28.1692 6.31641 28.521C6.31892 28.5964 6.32142 28.6643 6.32393 28.7235C6.33794 29.0828 6.63056 29.3643 6.99069 29.3643H10.5494C10.8627 29.3643 11.1302 29.1509 11.1996 28.8453L11.5593 27.2662C11.5595 27.2656 11.5595 27.265 11.5595 27.2644L12.1318 24.752V25.9697ZM22.5553 9.07033C22.5451 9.13847 22.533 9.20766 22.5187 9.27726C22.4665 9.53623 22.39 9.7791 22.2915 9.99877C22.1682 10.2736 22.0119 10.5081 21.8271 10.696C21.612 10.9145 21.3409 11.0815 21.0431 11.1791C20.2685 11.433 19.066 11.3962 18.3878 10.8988C18.1671 10.737 17.9775 10.5226 17.8243 10.2613C17.6976 10.0458 17.5954 9.7977 17.5206 9.52452C17.4798 9.3757 17.4481 9.22333 17.4257 9.07033H22.5553ZM17.0827 9.07033H17.0829C17.0771 9.07159 17.071 9.07263 17.0649 9.07368C17.0708 9.07263 17.0769 9.07159 17.0827 9.07033ZM10.4428 28.564H7.11881C7.11798 28.5381 7.11693 28.5107 7.11589 28.4827C7.10815 28.2511 7.10021 27.9453 7.09519 27.5777H10.6674L10.4428 28.564ZM10.8497 26.7774H7.09059C7.0931 25.0879 7.17378 22.6253 7.52493 20.1012C8.14047 15.6764 9.38348 12.6305 11.1344 11.2334L12.1318 15.0975V21.1476L10.8497 26.7774Z" fill="white"/>
<path d="M33.6851 27.1643C33.6945 25.4506 33.6289 22.7579 33.2441 19.9911C32.5372 14.9104 31.0588 11.6379 28.8502 10.2611C28.817 10.2348 28.7791 10.2131 28.7371 10.198L26.9024 9.54212C26.694 9.4675 26.4651 9.57598 26.3907 9.78416C26.3163 9.99234 26.4248 10.2212 26.633 10.2956L28.1201 10.8273L27.0569 14.9468C27.0483 14.9794 27.0441 15.0131 27.0441 15.0467V21.1928C27.0441 21.2105 27.0458 21.2283 27.0481 21.2458V29.2525H12.9319V28.3887C12.9319 28.1675 12.7528 27.9884 12.5319 27.9884C12.3107 27.9884 12.1316 28.1675 12.1316 28.3887V31.0864C12.1316 31.4541 12.4307 31.7534 12.7986 31.7534H27.1814C27.5493 31.7534 27.8484 31.4541 27.8484 31.0864V24.7694L28.4169 27.2661V27.2665L28.7766 28.8454C28.8462 29.151 29.1136 29.3644 29.4269 29.3644H32.986C33.3455 29.3644 33.6383 29.0828 33.6525 28.7237C33.6544 28.6717 33.6567 28.6132 33.6588 28.5486C33.6717 28.1966 33.6872 27.6655 33.6857 27.1764C33.6857 27.1722 33.6853 27.1685 33.6851 27.1643ZM27.0481 30.9531H12.9319V30.0529H27.0481V30.9531ZM32.8595 28.5059C32.8589 28.5254 32.858 28.5457 32.8574 28.564H29.5333L29.3086 27.5777H32.8808C32.8758 27.9575 32.8674 28.2718 32.8595 28.5059ZM29.1265 26.7774L27.8484 21.165V15.0975L28.845 11.2362C30.5942 12.6345 31.8362 15.6792 32.4513 20.1013C32.8024 22.6251 32.8831 25.0879 32.8856 26.7774H29.1265Z" fill="white"/>
</g>
<defs>
<clipPath id="clip0">
<rect width="27.3958" height="27.3958" fill="white" transform="translate(6.29028 6.29028)"/>
</clipPath>
</defs>
</svg>
